<?xml version="1.0" encoding="utf-8" standalone="no"?>
<!DOCTYPE svg PUBLIC "-//W3C//DTD SVG 1.1//EN"
  "http://www.w3.org/Graphics/SVG/1.1/DTD/svg11.dtd">
<!-- Created with matplotlib (https://matplotlib.org/) -->
<svg height="302.55625pt" version="1.1" viewBox="0 0 482.98125 302.55625" width="482.98125pt" xmlns="http://www.w3.org/2000/svg" xmlns:xlink="http://www.w3.org/1999/xlink">
 <defs>
  <style type="text/css">
*{stroke-linecap:butt;stroke-linejoin:round;}
  </style>
 </defs>
 <g id="figure_1">
  <g id="patch_1">
   <path d="M 0 302.55625 
L 482.98125 302.55625 
L 482.98125 0 
L 0 0 
z
" style="fill:#ffffff;"/>
  </g>
  <g id="axes_1">
   <g id="patch_2">
    <path d="M 36.58125 272.2 
L 482.98125 272.2 
L 482.98125 50.44 
L 36.58125 50.44 
z
" style="fill:#ffffff;"/>
   </g>
   <g id="matplotlib.axis_1">
    <g id="xtick_1">
     <g id="line2d_1">
      <defs>
       <path d="M 0 0 
L 0 3.5 
" id="mffe0bf8489" style="stroke:#000000;stroke-width:0.8;"/>
      </defs>
      <g>
       <use style="stroke:#000000;stroke-width:0.8;" x="56.872159" xlink:href="#mffe0bf8489" y="272.2"/>
      </g>
     </g>
     <g id="text_1">
      <!-- 0 -->
      <defs>
       <path d="M 31.78125 66.40625 
Q 24.171875 66.40625 20.328125 58.90625 
Q 16.5 51.421875 16.5 36.375 
Q 16.5 21.390625 20.328125 13.890625 
Q 24.171875 6.390625 31.78125 6.390625 
Q 39.453125 6.390625 43.28125 13.890625 
Q 47.125 21.390625 47.125 36.375 
Q 47.125 51.421875 43.28125 58.90625 
Q 39.453125 66.40625 31.78125 66.40625 
z
M 31.78125 74.21875 
Q 44.046875 74.21875 50.515625 64.515625 
Q 56.984375 54.828125 56.984375 36.375 
Q 56.984375 17.96875 50.515625 8.265625 
Q 44.046875 -1.421875 31.78125 -1.421875 
Q 19.53125 -1.421875 13.0625 8.265625 
Q 6.59375 17.96875 6.59375 36.375 
Q 6.59375 54.828125 13.0625 64.515625 
Q 19.53125 74.21875 31.78125 74.21875 
z
" id="DejaVuSans-48"/>
      </defs>
      <g transform="translate(53.690909 286.798437)scale(0.1 -0.1)">
       <use xlink:href="#DejaVuSans-48"/>
      </g>
     </g>
    </g>
    <g id="xtick_2">
     <g id="line2d_2">
      <g>
       <use style="stroke:#000000;stroke-width:0.8;" x="138.85563" xlink:href="#mffe0bf8489" y="272.2"/>
      </g>
     </g>
     <g id="text_2">
      <!-- 20 -->
      <defs>
       <path d="M 19.1875 8.296875 
L 53.609375 8.296875 
L 53.609375 0 
L 7.328125 0 
L 7.328125 8.296875 
Q 12.9375 14.109375 22.625 23.890625 
Q 32.328125 33.6875 34.8125 36.53125 
Q 39.546875 41.84375 41.421875 45.53125 
Q 43.3125 49.21875 43.3125 52.78125 
Q 43.3125 58.59375 39.234375 62.25 
Q 35.15625 65.921875 28.609375 65.921875 
Q 23.96875 65.921875 18.8125 64.3125 
Q 13.671875 62.703125 7.8125 59.421875 
L 7.8125 69.390625 
Q 13.765625 71.78125 18.9375 73 
Q 24.125 74.21875 28.421875 74.21875 
Q 39.75 74.21875 46.484375 68.546875 
Q 53.21875 62.890625 53.21875 53.421875 
Q 53.21875 48.921875 51.53125 44.890625 
Q 49.859375 40.875 45.40625 35.40625 
Q 44.1875 33.984375 37.640625 27.21875 
Q 31.109375 20.453125 19.1875 8.296875 
z
" id="DejaVuSans-50"/>
      </defs>
      <g transform="translate(132.49313 286.798437)scale(0.1 -0.1)">
       <use xlink:href="#DejaVuSans-50"/>
       <use x="63.623047" xlink:href="#DejaVuSans-48"/>
      </g>
     </g>
    </g>
    <g id="xtick_3">
     <g id="line2d_3">
      <g>
       <use style="stroke:#000000;stroke-width:0.8;" x="220.839101" xlink:href="#mffe0bf8489" y="272.2"/>
      </g>
     </g>
     <g id="text_3">
      <!-- 40 -->
      <defs>
       <path d="M 37.796875 64.3125 
L 12.890625 25.390625 
L 37.796875 25.390625 
z
M 35.203125 72.90625 
L 47.609375 72.90625 
L 47.609375 25.390625 
L 58.015625 25.390625 
L 58.015625 17.1875 
L 47.609375 17.1875 
L 47.609375 0 
L 37.796875 0 
L 37.796875 17.1875 
L 4.890625 17.1875 
L 4.890625 26.703125 
z
" id="DejaVuSans-52"/>
      </defs>
      <g transform="translate(214.476601 286.798437)scale(0.1 -0.1)">
       <use xlink:href="#DejaVuSans-52"/>
       <use x="63.623047" xlink:href="#DejaVuSans-48"/>
      </g>
     </g>
    </g>
    <g id="xtick_4">
     <g id="line2d_4">
      <g>
       <use style="stroke:#000000;stroke-width:0.8;" x="302.822572" xlink:href="#mffe0bf8489" y="272.2"/>
      </g>
     </g>
     <g id="text_4">
      <!-- 60 -->
      <defs>
       <path d="M 33.015625 40.375 
Q 26.375 40.375 22.484375 35.828125 
Q 18.609375 31.296875 18.609375 23.390625 
Q 18.609375 15.53125 22.484375 10.953125 
Q 26.375 6.390625 33.015625 6.390625 
Q 39.65625 6.390625 43.53125 10.953125 
Q 47.40625 15.53125 47.40625 23.390625 
Q 47.40625 31.296875 43.53125 35.828125 
Q 39.65625 40.375 33.015625 40.375 
z
M 52.59375 71.296875 
L 52.59375 62.3125 
Q 48.875 64.0625 45.09375 64.984375 
Q 41.3125 65.921875 37.59375 65.921875 
Q 27.828125 65.921875 22.671875 59.328125 
Q 17.53125 52.734375 16.796875 39.40625 
Q 19.671875 43.65625 24.015625 45.921875 
Q 28.375 48.1875 33.59375 48.1875 
Q 44.578125 48.1875 50.953125 41.515625 
Q 57.328125 34.859375 57.328125 23.390625 
Q 57.328125 12.15625 50.6875 5.359375 
Q 44.046875 -1.421875 33.015625 -1.421875 
Q 20.359375 -1.421875 13.671875 8.265625 
Q 6.984375 17.96875 6.984375 36.375 
Q 6.984375 53.65625 15.1875 63.9375 
Q 23.390625 74.21875 37.203125 74.21875 
Q 40.921875 74.21875 44.703125 73.484375 
Q 48.484375 72.75 52.59375 71.296875 
z
" id="DejaVuSans-54"/>
      </defs>
      <g transform="translate(296.460072 286.798437)scale(0.1 -0.1)">
       <use xlink:href="#DejaVuSans-54"/>
       <use x="63.623047" xlink:href="#DejaVuSans-48"/>
      </g>
     </g>
    </g>
    <g id="xtick_5">
     <g id="line2d_5">
      <g>
       <use style="stroke:#000000;stroke-width:0.8;" x="384.806043" xlink:href="#mffe0bf8489" y="272.2"/>
      </g>
     </g>
     <g id="text_5">
      <!-- 80 -->
      <defs>
       <path d="M 31.78125 34.625 
Q 24.75 34.625 20.71875 30.859375 
Q 16.703125 27.09375 16.703125 20.515625 
Q 16.703125 13.921875 20.71875 10.15625 
Q 24.75 6.390625 31.78125 6.390625 
Q 38.8125 6.390625 42.859375 10.171875 
Q 46.921875 13.96875 46.921875 20.515625 
Q 46.921875 27.09375 42.890625 30.859375 
Q 38.875 34.625 31.78125 34.625 
z
M 21.921875 38.8125 
Q 15.578125 40.375 12.03125 44.71875 
Q 8.5 49.078125 8.5 55.328125 
Q 8.5 64.0625 14.71875 69.140625 
Q 20.953125 74.21875 31.78125 74.21875 
Q 42.671875 74.21875 48.875 69.140625 
Q 55.078125 64.0625 55.078125 55.328125 
Q 55.078125 49.078125 51.53125 44.71875 
Q 48 40.375 41.703125 38.8125 
Q 48.828125 37.15625 52.796875 32.3125 
Q 56.78125 27.484375 56.78125 20.515625 
Q 56.78125 9.90625 50.3125 4.234375 
Q 43.84375 -1.421875 31.78125 -1.421875 
Q 19.734375 -1.421875 13.25 4.234375 
Q 6.78125 9.90625 6.78125 20.515625 
Q 6.78125 27.484375 10.78125 32.3125 
Q 14.796875 37.15625 21.921875 38.8125 
z
M 18.3125 54.390625 
Q 18.3125 48.734375 21.84375 45.5625 
Q 25.390625 42.390625 31.78125 42.390625 
Q 38.140625 42.390625 41.71875 45.5625 
Q 45.3125 48.734375 45.3125 54.390625 
Q 45.3125 60.0625 41.71875 63.234375 
Q 38.140625 66.40625 31.78125 66.40625 
Q 25.390625 66.40625 21.84375 63.234375 
Q 18.3125 60.0625 18.3125 54.390625 
z
" id="DejaVuSans-56"/>
      </defs>
      <g transform="translate(378.443543 286.798437)scale(0.1 -0.1)">
       <use xlink:href="#DejaVuSans-56"/>
       <use x="63.623047" xlink:href="#DejaVuSans-48"/>
      </g>
     </g>
    </g>
    <g id="xtick_6">
     <g id="line2d_6">
      <g>
       <use style="stroke:#000000;stroke-width:0.8;" x="466.789514" xlink:href="#mffe0bf8489" y="272.2"/>
      </g>
     </g>
     <g id="text_6">
      <!-- 100 -->
      <defs>
       <path d="M 12.40625 8.296875 
L 28.515625 8.296875 
L 28.515625 63.921875 
L 10.984375 60.40625 
L 10.984375 69.390625 
L 28.421875 72.90625 
L 38.28125 72.90625 
L 38.28125 8.296875 
L 54.390625 8.296875 
L 54.390625 0 
L 12.40625 0 
z
" id="DejaVuSans-49"/>
      </defs>
      <g transform="translate(457.245764 286.798437)scale(0.1 -0.1)">
       <use xlink:href="#DejaVuSans-49"/>
       <use x="63.623047" xlink:href="#DejaVuSans-48"/>
       <use x="127.246094" xlink:href="#DejaVuSans-48"/>
      </g>
     </g>
    </g>
    <g id="text_7">
     <!-- Index -->
     <defs>
      <path d="M 9.8125 72.90625 
L 19.671875 72.90625 
L 19.671875 0 
L 9.8125 0 
z
" id="DejaVuSans-73"/>
      <path d="M 54.890625 33.015625 
L 54.890625 0 
L 45.90625 0 
L 45.90625 32.71875 
Q 45.90625 40.484375 42.875 44.328125 
Q 39.84375 48.1875 33.796875 48.1875 
Q 26.515625 48.1875 22.3125 43.546875 
Q 18.109375 38.921875 18.109375 30.90625 
L 18.109375 0 
L 9.078125 0 
L 9.078125 54.6875 
L 18.109375 54.6875 
L 18.109375 46.1875 
Q 21.34375 51.125 25.703125 53.5625 
Q 30.078125 56 35.796875 56 
Q 45.21875 56 50.046875 50.171875 
Q 54.890625 44.34375 54.890625 33.015625 
z
" id="DejaVuSans-110"/>
      <path d="M 45.40625 46.390625 
L 45.40625 75.984375 
L 54.390625 75.984375 
L 54.390625 0 
L 45.40625 0 
L 45.40625 8.203125 
Q 42.578125 3.328125 38.25 0.953125 
Q 33.9375 -1.421875 27.875 -1.421875 
Q 17.96875 -1.421875 11.734375 6.484375 
Q 5.515625 14.40625 5.515625 27.296875 
Q 5.515625 40.1875 11.734375 48.09375 
Q 17.96875 56 27.875 56 
Q 33.9375 56 38.25 53.625 
Q 42.578125 51.265625 45.40625 46.390625 
z
M 14.796875 27.296875 
Q 14.796875 17.390625 18.875 11.75 
Q 22.953125 6.109375 30.078125 6.109375 
Q 37.203125 6.109375 41.296875 11.75 
Q 45.40625 17.390625 45.40625 27.296875 
Q 45.40625 37.203125 41.296875 42.84375 
Q 37.203125 48.484375 30.078125 48.484375 
Q 22.953125 48.484375 18.875 42.84375 
Q 14.796875 37.203125 14.796875 27.296875 
z
" id="DejaVuSans-100"/>
      <path d="M 56.203125 29.59375 
L 56.203125 25.203125 
L 14.890625 25.203125 
Q 15.484375 15.921875 20.484375 11.0625 
Q 25.484375 6.203125 34.421875 6.203125 
Q 39.59375 6.203125 44.453125 7.46875 
Q 49.3125 8.734375 54.109375 11.28125 
L 54.109375 2.78125 
Q 49.265625 0.734375 44.1875 -0.34375 
Q 39.109375 -1.421875 33.890625 -1.421875 
Q 20.796875 -1.421875 13.15625 6.1875 
Q 5.515625 13.8125 5.515625 26.8125 
Q 5.515625 40.234375 12.765625 48.109375 
Q 20.015625 56 32.328125 56 
Q 43.359375 56 49.78125 48.890625 
Q 56.203125 41.796875 56.203125 29.59375 
z
M 47.21875 32.234375 
Q 47.125 39.59375 43.09375 43.984375 
Q 39.0625 48.390625 32.421875 48.390625 
Q 24.90625 48.390625 20.390625 44.140625 
Q 15.875 39.890625 15.1875 32.171875 
z
" id="DejaVuSans-101"/>
      <path d="M 54.890625 54.6875 
L 35.109375 28.078125 
L 55.90625 0 
L 45.3125 0 
L 29.390625 21.484375 
L 13.484375 0 
L 2.875 0 
L 24.125 28.609375 
L 4.6875 54.6875 
L 15.28125 54.6875 
L 29.78125 35.203125 
L 44.28125 54.6875 
z
" id="DejaVuSans-120"/>
     </defs>
     <g transform="translate(245.928125 300.476562)scale(0.1 -0.1)">
      <use xlink:href="#DejaVuSans-73"/>
      <use x="29.492188" xlink:href="#DejaVuSans-110"/>
      <use x="92.871094" xlink:href="#DejaVuSans-100"/>
      <use x="156.347656" xlink:href="#DejaVuSans-101"/>
      <use x="217.855469" xlink:href="#DejaVuSans-120"/>
     </g>
    </g>
   </g>
   <g id="matplotlib.axis_2">
    <g id="ytick_1">
     <g id="line2d_7">
      <defs>
       <path d="M 0 0 
L -3.5 0 
" id="mc2022aa750" style="stroke:#000000;stroke-width:0.8;"/>
      </defs>
      <g>
       <use style="stroke:#000000;stroke-width:0.8;" x="36.58125" xlink:href="#mc2022aa750" y="225.009074"/>
      </g>
     </g>
     <g id="text_8">
      <!-- 0.4 -->
      <defs>
       <path d="M 10.6875 12.40625 
L 21 12.40625 
L 21 0 
L 10.6875 0 
z
" id="DejaVuSans-46"/>
      </defs>
      <g transform="translate(13.678125 228.808293)scale(0.1 -0.1)">
       <use xlink:href="#DejaVuSans-48"/>
       <use x="63.623047" xlink:href="#DejaVuSans-46"/>
       <use x="95.410156" xlink:href="#DejaVuSans-52"/>
      </g>
     </g>
    </g>
    <g id="ytick_2">
     <g id="line2d_8">
      <g>
       <use style="stroke:#000000;stroke-width:0.8;" x="36.58125" xlink:href="#mc2022aa750" y="176.969041"/>
      </g>
     </g>
     <g id="text_9">
      <!-- 0.6 -->
      <g transform="translate(13.678125 180.76826)scale(0.1 -0.1)">
       <use xlink:href="#DejaVuSans-48"/>
       <use x="63.623047" xlink:href="#DejaVuSans-46"/>
       <use x="95.410156" xlink:href="#DejaVuSans-54"/>
      </g>
     </g>
    </g>
    <g id="ytick_3">
     <g id="line2d_9">
      <g>
       <use style="stroke:#000000;stroke-width:0.8;" x="36.58125" xlink:href="#mc2022aa750" y="128.929008"/>
      </g>
     </g>
     <g id="text_10">
      <!-- 0.8 -->
      <g transform="translate(13.678125 132.728226)scale(0.1 -0.1)">
       <use xlink:href="#DejaVuSans-48"/>
       <use x="63.623047" xlink:href="#DejaVuSans-46"/>
       <use x="95.410156" xlink:href="#DejaVuSans-56"/>
      </g>
     </g>
    </g>
    <g id="ytick_4">
     <g id="line2d_10">
      <g>
       <use style="stroke:#000000;stroke-width:0.8;" x="36.58125" xlink:href="#mc2022aa750" y="80.888974"/>
      </g>
     </g>
     <g id="text_11">
      <!-- 1.0 -->
      <g transform="translate(13.678125 84.688193)scale(0.1 -0.1)">
       <use xlink:href="#DejaVuSans-49"/>
       <use x="63.623047" xlink:href="#DejaVuSans-46"/>
       <use x="95.410156" xlink:href="#DejaVuSans-48"/>
      </g>
     </g>
    </g>
    <g id="text_12">
     <!-- PauseDurationMSec -->
     <defs>
      <path d="M 19.671875 64.796875 
L 19.671875 37.40625 
L 32.078125 37.40625 
Q 38.96875 37.40625 42.71875 40.96875 
Q 46.484375 44.53125 46.484375 51.125 
Q 46.484375 57.671875 42.71875 61.234375 
Q 38.96875 64.796875 32.078125 64.796875 
z
M 9.8125 72.90625 
L 32.078125 72.90625 
Q 44.34375 72.90625 50.609375 67.359375 
Q 56.890625 61.8125 56.890625 51.125 
Q 56.890625 40.328125 50.609375 34.8125 
Q 44.34375 29.296875 32.078125 29.296875 
L 19.671875 29.296875 
L 19.671875 0 
L 9.8125 0 
z
" id="DejaVuSans-80"/>
      <path d="M 34.28125 27.484375 
Q 23.390625 27.484375 19.1875 25 
Q 14.984375 22.515625 14.984375 16.5 
Q 14.984375 11.71875 18.140625 8.90625 
Q 21.296875 6.109375 26.703125 6.109375 
Q 34.1875 6.109375 38.703125 11.40625 
Q 43.21875 16.703125 43.21875 25.484375 
L 43.21875 27.484375 
z
M 52.203125 31.203125 
L 52.203125 0 
L 43.21875 0 
L 43.21875 8.296875 
Q 40.140625 3.328125 35.546875 0.953125 
Q 30.953125 -1.421875 24.3125 -1.421875 
Q 15.921875 -1.421875 10.953125 3.296875 
Q 6 8.015625 6 15.921875 
Q 6 25.140625 12.171875 29.828125 
Q 18.359375 34.515625 30.609375 34.515625 
L 43.21875 34.515625 
L 43.21875 35.40625 
Q 43.21875 41.609375 39.140625 45 
Q 35.0625 48.390625 27.6875 48.390625 
Q 23 48.390625 18.546875 47.265625 
Q 14.109375 46.140625 10.015625 43.890625 
L 10.015625 52.203125 
Q 14.9375 54.109375 19.578125 55.046875 
Q 24.21875 56 28.609375 56 
Q 40.484375 56 46.34375 49.84375 
Q 52.203125 43.703125 52.203125 31.203125 
z
" id="DejaVuSans-97"/>
      <path d="M 8.5 21.578125 
L 8.5 54.6875 
L 17.484375 54.6875 
L 17.484375 21.921875 
Q 17.484375 14.15625 20.5 10.265625 
Q 23.53125 6.390625 29.59375 6.390625 
Q 36.859375 6.390625 41.078125 11.03125 
Q 45.3125 15.671875 45.3125 23.6875 
L 45.3125 54.6875 
L 54.296875 54.6875 
L 54.296875 0 
L 45.3125 0 
L 45.3125 8.40625 
Q 42.046875 3.421875 37.71875 1 
Q 33.40625 -1.421875 27.6875 -1.421875 
Q 18.265625 -1.421875 13.375 4.4375 
Q 8.5 10.296875 8.5 21.578125 
z
M 31.109375 56 
z
" id="DejaVuSans-117"/>
      <path d="M 44.28125 53.078125 
L 44.28125 44.578125 
Q 40.484375 46.53125 36.375 47.5 
Q 32.28125 48.484375 27.875 48.484375 
Q 21.1875 48.484375 17.84375 46.4375 
Q 14.5 44.390625 14.5 40.28125 
Q 14.5 37.15625 16.890625 35.375 
Q 19.28125 33.59375 26.515625 31.984375 
L 29.59375 31.296875 
Q 39.15625 29.25 43.1875 25.515625 
Q 47.21875 21.78125 47.21875 15.09375 
Q 47.21875 7.46875 41.1875 3.015625 
Q 35.15625 -1.421875 24.609375 -1.421875 
Q 20.21875 -1.421875 15.453125 -0.5625 
Q 10.6875 0.296875 5.421875 2 
L 5.421875 11.28125 
Q 10.40625 8.6875 15.234375 7.390625 
Q 20.0625 6.109375 24.8125 6.109375 
Q 31.15625 6.109375 34.5625 8.28125 
Q 37.984375 10.453125 37.984375 14.40625 
Q 37.984375 18.0625 35.515625 20.015625 
Q 33.0625 21.96875 24.703125 23.78125 
L 21.578125 24.515625 
Q 13.234375 26.265625 9.515625 29.90625 
Q 5.8125 33.546875 5.8125 39.890625 
Q 5.8125 47.609375 11.28125 51.796875 
Q 16.75 56 26.8125 56 
Q 31.78125 56 36.171875 55.265625 
Q 40.578125 54.546875 44.28125 53.078125 
z
" id="DejaVuSans-115"/>
      <path d="M 19.671875 64.796875 
L 19.671875 8.109375 
L 31.59375 8.109375 
Q 46.6875 8.109375 53.6875 14.9375 
Q 60.6875 21.78125 60.6875 36.53125 
Q 60.6875 51.171875 53.6875 57.984375 
Q 46.6875 64.796875 31.59375 64.796875 
z
M 9.8125 72.90625 
L 30.078125 72.90625 
Q 51.265625 72.90625 61.171875 64.09375 
Q 71.09375 55.28125 71.09375 36.53125 
Q 71.09375 17.671875 61.125 8.828125 
Q 51.171875 0 30.078125 0 
L 9.8125 0 
z
" id="DejaVuSans-68"/>
      <path d="M 41.109375 46.296875 
Q 39.59375 47.171875 37.8125 47.578125 
Q 36.03125 48 33.890625 48 
Q 26.265625 48 22.1875 43.046875 
Q 18.109375 38.09375 18.109375 28.8125 
L 18.109375 0 
L 9.078125 0 
L 9.078125 54.6875 
L 18.109375 54.6875 
L 18.109375 46.1875 
Q 20.953125 51.171875 25.484375 53.578125 
Q 30.03125 56 36.53125 56 
Q 37.453125 56 38.578125 55.875 
Q 39.703125 55.765625 41.0625 55.515625 
z
" id="DejaVuSans-114"/>
      <path d="M 18.3125 70.21875 
L 18.3125 54.6875 
L 36.8125 54.6875 
L 36.8125 47.703125 
L 18.3125 47.703125 
L 18.3125 18.015625 
Q 18.3125 11.328125 20.140625 9.421875 
Q 21.96875 7.515625 27.59375 7.515625 
L 36.8125 7.515625 
L 36.8125 0 
L 27.59375 0 
Q 17.1875 0 13.234375 3.875 
Q 9.28125 7.765625 9.28125 18.015625 
L 9.28125 47.703125 
L 2.6875 47.703125 
L 2.6875 54.6875 
L 9.28125 54.6875 
L 9.28125 70.21875 
z
" id="DejaVuSans-116"/>
      <path d="M 9.421875 54.6875 
L 18.40625 54.6875 
L 18.40625 0 
L 9.421875 0 
z
M 9.421875 75.984375 
L 18.40625 75.984375 
L 18.40625 64.59375 
L 9.421875 64.59375 
z
" id="DejaVuSans-105"/>
      <path d="M 30.609375 48.390625 
Q 23.390625 48.390625 19.1875 42.75 
Q 14.984375 37.109375 14.984375 27.296875 
Q 14.984375 17.484375 19.15625 11.84375 
Q 23.34375 6.203125 30.609375 6.203125 
Q 37.796875 6.203125 41.984375 11.859375 
Q 46.1875 17.53125 46.1875 27.296875 
Q 46.1875 37.015625 41.984375 42.703125 
Q 37.796875 48.390625 30.609375 48.390625 
z
M 30.609375 56 
Q 42.328125 56 49.015625 48.375 
Q 55.71875 40.765625 55.71875 27.296875 
Q 55.71875 13.875 49.015625 6.21875 
Q 42.328125 -1.421875 30.609375 -1.421875 
Q 18.84375 -1.421875 12.171875 6.21875 
Q 5.515625 13.875 5.515625 27.296875 
Q 5.515625 40.765625 12.171875 48.375 
Q 18.84375 56 30.609375 56 
z
" id="DejaVuSans-111"/>
      <path d="M 9.8125 72.90625 
L 24.515625 72.90625 
L 43.109375 23.296875 
L 61.8125 72.90625 
L 76.515625 72.90625 
L 76.515625 0 
L 66.890625 0 
L 66.890625 64.015625 
L 48.09375 14.015625 
L 38.1875 14.015625 
L 19.390625 64.015625 
L 19.390625 0 
L 9.8125 0 
z
" id="DejaVuSans-77"/>
      <path d="M 53.515625 70.515625 
L 53.515625 60.890625 
Q 47.90625 63.578125 42.921875 64.890625 
Q 37.9375 66.21875 33.296875 66.21875 
Q 25.25 66.21875 20.875 63.09375 
Q 16.5 59.96875 16.5 54.203125 
Q 16.5 49.359375 19.40625 46.890625 
Q 22.3125 44.4375 30.421875 42.921875 
L 36.375 41.703125 
Q 47.40625 39.59375 52.65625 34.296875 
Q 57.90625 29 57.90625 20.125 
Q 57.90625 9.515625 50.796875 4.046875 
Q 43.703125 -1.421875 29.984375 -1.421875 
Q 24.8125 -1.421875 18.96875 -0.25 
Q 13.140625 0.921875 6.890625 3.21875 
L 6.890625 13.375 
Q 12.890625 10.015625 18.65625 8.296875 
Q 24.421875 6.59375 29.984375 6.59375 
Q 38.421875 6.59375 43.015625 9.90625 
Q 47.609375 13.234375 47.609375 19.390625 
Q 47.609375 24.75 44.3125 27.78125 
Q 41.015625 30.8125 33.5 32.328125 
L 27.484375 33.5 
Q 16.453125 35.6875 11.515625 40.375 
Q 6.59375 45.0625 6.59375 53.421875 
Q 6.59375 63.09375 13.40625 68.65625 
Q 20.21875 74.21875 32.171875 74.21875 
Q 37.3125 74.21875 42.625 73.28125 
Q 47.953125 72.359375 53.515625 70.515625 
z
" id="DejaVuSans-83"/>
      <path d="M 48.78125 52.59375 
L 48.78125 44.1875 
Q 44.96875 46.296875 41.140625 47.34375 
Q 37.3125 48.390625 33.40625 48.390625 
Q 24.65625 48.390625 19.8125 42.84375 
Q 14.984375 37.3125 14.984375 27.296875 
Q 14.984375 17.28125 19.8125 11.734375 
Q 24.65625 6.203125 33.40625 6.203125 
Q 37.3125 6.203125 41.140625 7.25 
Q 44.96875 8.296875 48.78125 10.40625 
L 48.78125 2.09375 
Q 45.015625 0.34375 40.984375 -0.53125 
Q 36.96875 -1.421875 32.421875 -1.421875 
Q 20.0625 -1.421875 12.78125 6.34375 
Q 5.515625 14.109375 5.515625 27.296875 
Q 5.515625 40.671875 12.859375 48.328125 
Q 20.21875 56 33.015625 56 
Q 37.15625 56 41.109375 55.140625 
Q 45.0625 54.296875 48.78125 52.59375 
z
" id="DejaVuSans-99"/>
     </defs>
     <g transform="translate(7.598438 211.275469)rotate(-90)scale(0.1 -0.1)">
      <use xlink:href="#DejaVuSans-80"/>
      <use x="60.240234" xlink:href="#DejaVuSans-97"/>
      <use x="121.519531" xlink:href="#DejaVuSans-117"/>
      <use x="184.898438" xlink:href="#DejaVuSans-115"/>
      <use x="236.998047" xlink:href="#DejaVuSans-101"/>
      <use x="298.521484" xlink:href="#DejaVuSans-68"/>
      <use x="375.523438" xlink:href="#DejaVuSans-117"/>
      <use x="438.902344" xlink:href="#DejaVuSans-114"/>
      <use x="480.015625" xlink:href="#DejaVuSans-97"/>
      <use x="541.294922" xlink:href="#DejaVuSans-116"/>
      <use x="580.503906" xlink:href="#DejaVuSans-105"/>
      <use x="608.287109" xlink:href="#DejaVuSans-111"/>
      <use x="669.46875" xlink:href="#DejaVuSans-110"/>
      <use x="732.847656" xlink:href="#DejaVuSans-77"/>
      <use x="819.126953" xlink:href="#DejaVuSans-83"/>
      <use x="882.603516" xlink:href="#DejaVuSans-101"/>
      <use x="944.126953" xlink:href="#DejaVuSans-99"/>
     </g>
    </g>
   </g>
   <g id="line2d_11">
    <path clip-path="url(#pe6894d69b7)" d="M 56.872159 254.913995 
L 60.971333 249.941852 
L 65.070506 210.981384 
L 69.16968 254.553695 
L 73.268853 203.150859 
L 77.368027 204.78422 
L 81.4672 230.365538 
L 85.566374 252.848274 
L 89.665548 207.138182 
L 93.764721 233.96854 
L 97.863895 232.431259 
L 101.963068 198.058616 
L 106.062242 255.658616 
L 110.161415 250.206072 
L 114.260589 206.633761 
L 118.359762 199.163536 
L 122.458936 251.623253 
L 126.55811 236.995063 
L 130.657283 249.701651 
L 134.756457 215.809408 
L 138.85563 255.010075 
L 142.954804 254.385555 
L 147.053977 143.100817 
L 151.153151 254.241435 
L 155.252324 166.328173 
L 159.351498 251.214912 
L 163.450671 222.006572 
L 167.549845 245.378048 
L 171.649019 246.026589 
L 175.748192 229.332677 
L 179.847366 228.227756 
L 183.946539 191.501151 
L 188.045713 256.571376 
L 192.144886 195.968874 
L 196.24406 255.442435 
L 200.343233 251.190892 
L 204.442407 189.339349 
L 208.541581 253.016414 
L 212.640754 261.207239 
L 216.739928 213.287306 
L 220.839101 156.335847 
L 224.938275 252.560033 
L 229.037448 206.177381 
L 233.136622 252.151693 
L 237.235795 60.52 
L 241.334969 218.57171 
L 245.434143 244.441268 
L 249.533316 193.110492 
L 253.63249 251.503153 
L 257.731663 207.042102 
L 261.830837 208.939683 
L 265.93001 243.000067 
L 270.029184 177.017081 
L 274.128357 173.366038 
L 278.227531 189.099149 
L 282.326705 222.366872 
L 286.425878 251.359033 
L 290.525052 205.1205 
L 294.624225 242.447606 
L 298.723399 178.578382 
L 302.822572 223.111493 
L 306.921746 253.640934 
L 311.020919 253.400734 
L 315.120093 180.451943 
L 319.219267 214.440267 
L 323.31844 251.022752 
L 327.417614 209.299983 
L 331.516787 223.207573 
L 335.615961 227.339016 
L 339.715134 258.516997 
L 343.814308 260.774879 
L 347.913481 175.74402 
L 352.012655 260.486639 
L 356.111829 216.962369 
L 360.211002 255.346355 
L 364.310176 251.407073 
L 368.409349 231.782719 
L 372.508523 255.106155 
L 376.607696 245.930509 
L 380.70687 226.882636 
L 384.806043 195.440434 
L 388.905217 254.577715 
L 397.103564 192.846272 
L 401.202738 254.481635 
L 405.301911 230.317498 
L 409.401085 248.740851 
L 413.500258 245.161868 
L 417.599432 234.040601 
L 421.698605 240.838265 
L 425.797779 236.202402 
L 429.896952 243.528507 
L 433.996126 240.069625 
L 438.0953 256.643436 
L 442.194473 203.679299 
L 446.293647 161.52417 
L 450.39282 242.063286 
L 454.491994 262.12 
L 458.591167 254.097314 
L 462.690341 109.352694 
" style="fill:none;stroke:#4e4dfc;stroke-linecap:square;stroke-width:1.5;"/>
    <defs>
     <path d="M 0 1.5 
C 0.397805 1.5 0.77937 1.341951 1.06066 1.06066 
C 1.341951 0.77937 1.5 0.397805 1.5 0 
C 1.5 -0.397805 1.341951 -0.77937 1.06066 -1.06066 
C 0.77937 -1.341951 0.397805 -1.5 0 -1.5 
C -0.397805 -1.5 -0.77937 -1.341951 -1.06066 -1.06066 
C -1.341951 -0.77937 -1.5 -0.397805 -1.5 0 
C -1.5 0.397805 -1.341951 0.77937 -1.06066 1.06066 
C -0.77937 1.341951 -0.397805 1.5 0 1.5 
z
" id="m09dada0c25" style="stroke:#4e4dfc;"/>
    </defs>
    <g clip-path="url(#pe6894d69b7)">
     <use style="fill:#4e4dfc;stroke:#4e4dfc;" x="56.872159" xlink:href="#m09dada0c25" y="254.913995"/>
     <use style="fill:#4e4dfc;stroke:#4e4dfc;" x="60.971333" xlink:href="#m09dada0c25" y="249.941852"/>
     <use style="fill:#4e4dfc;stroke:#4e4dfc;" x="65.070506" xlink:href="#m09dada0c25" y="210.981384"/>
     <use style="fill:#4e4dfc;stroke:#4e4dfc;" x="69.16968" xlink:href="#m09dada0c25" y="254.553695"/>
     <use style="fill:#4e4dfc;stroke:#4e4dfc;" x="73.268853" xlink:href="#m09dada0c25" y="203.150859"/>
     <use style="fill:#4e4dfc;stroke:#4e4dfc;" x="77.368027" xlink:href="#m09dada0c25" y="204.78422"/>
     <use style="fill:#4e4dfc;stroke:#4e4dfc;" x="81.4672" xlink:href="#m09dada0c25" y="230.365538"/>
     <use style="fill:#4e4dfc;stroke:#4e4dfc;" x="85.566374" xlink:href="#m09dada0c25" y="252.848274"/>
     <use style="fill:#4e4dfc;stroke:#4e4dfc;" x="89.665548" xlink:href="#m09dada0c25" y="207.138182"/>
     <use style="fill:#4e4dfc;stroke:#4e4dfc;" x="93.764721" xlink:href="#m09dada0c25" y="233.96854"/>
     <use style="fill:#4e4dfc;stroke:#4e4dfc;" x="97.863895" xlink:href="#m09dada0c25" y="232.431259"/>
     <use style="fill:#4e4dfc;stroke:#4e4dfc;" x="101.963068" xlink:href="#m09dada0c25" y="198.058616"/>
     <use style="fill:#4e4dfc;stroke:#4e4dfc;" x="106.062242" xlink:href="#m09dada0c25" y="255.658616"/>
     <use style="fill:#4e4dfc;stroke:#4e4dfc;" x="110.161415" xlink:href="#m09dada0c25" y="250.206072"/>
     <use style="fill:#4e4dfc;stroke:#4e4dfc;" x="114.260589" xlink:href="#m09dada0c25" y="206.633761"/>
     <use style="fill:#4e4dfc;stroke:#4e4dfc;" x="118.359762" xlink:href="#m09dada0c25" y="199.163536"/>
     <use style="fill:#4e4dfc;stroke:#4e4dfc;" x="122.458936" xlink:href="#m09dada0c25" y="251.623253"/>
     <use style="fill:#4e4dfc;stroke:#4e4dfc;" x="126.55811" xlink:href="#m09dada0c25" y="236.995063"/>
     <use style="fill:#4e4dfc;stroke:#4e4dfc;" x="130.657283" xlink:href="#m09dada0c25" y="249.701651"/>
     <use style="fill:#4e4dfc;stroke:#4e4dfc;" x="134.756457" xlink:href="#m09dada0c25" y="215.809408"/>
     <use style="fill:#4e4dfc;stroke:#4e4dfc;" x="138.85563" xlink:href="#m09dada0c25" y="255.010075"/>
     <use style="fill:#4e4dfc;stroke:#4e4dfc;" x="142.954804" xlink:href="#m09dada0c25" y="254.385555"/>
     <use style="fill:#4e4dfc;stroke:#4e4dfc;" x="147.053977" xlink:href="#m09dada0c25" y="143.100817"/>
     <use style="fill:#4e4dfc;stroke:#4e4dfc;" x="151.153151" xlink:href="#m09dada0c25" y="254.241435"/>
     <use style="fill:#4e4dfc;stroke:#4e4dfc;" x="155.252324" xlink:href="#m09dada0c25" y="166.328173"/>
     <use style="fill:#4e4dfc;stroke:#4e4dfc;" x="159.351498" xlink:href="#m09dada0c25" y="251.214912"/>
     <use style="fill:#4e4dfc;stroke:#4e4dfc;" x="163.450671" xlink:href="#m09dada0c25" y="222.006572"/>
     <use style="fill:#4e4dfc;stroke:#4e4dfc;" x="167.549845" xlink:href="#m09dada0c25" y="245.378048"/>
     <use style="fill:#4e4dfc;stroke:#4e4dfc;" x="171.649019" xlink:href="#m09dada0c25" y="246.026589"/>
     <use style="fill:#4e4dfc;stroke:#4e4dfc;" x="175.748192" xlink:href="#m09dada0c25" y="229.332677"/>
     <use style="fill:#4e4dfc;stroke:#4e4dfc;" x="179.847366" xlink:href="#m09dada0c25" y="228.227756"/>
     <use style="fill:#4e4dfc;stroke:#4e4dfc;" x="183.946539" xlink:href="#m09dada0c25" y="191.501151"/>
     <use style="fill:#4e4dfc;stroke:#4e4dfc;" x="188.045713" xlink:href="#m09dada0c25" y="256.571376"/>
     <use style="fill:#4e4dfc;stroke:#4e4dfc;" x="192.144886" xlink:href="#m09dada0c25" y="195.968874"/>
     <use style="fill:#4e4dfc;stroke:#4e4dfc;" x="196.24406" xlink:href="#m09dada0c25" y="255.442435"/>
     <use style="fill:#4e4dfc;stroke:#4e4dfc;" x="200.343233" xlink:href="#m09dada0c25" y="251.190892"/>
     <use style="fill:#4e4dfc;stroke:#4e4dfc;" x="204.442407" xlink:href="#m09dada0c25" y="189.339349"/>
     <use style="fill:#4e4dfc;stroke:#4e4dfc;" x="208.541581" xlink:href="#m09dada0c25" y="253.016414"/>
     <use style="fill:#4e4dfc;stroke:#4e4dfc;" x="212.640754" xlink:href="#m09dada0c25" y="261.207239"/>
     <use style="fill:#4e4dfc;stroke:#4e4dfc;" x="216.739928" xlink:href="#m09dada0c25" y="213.287306"/>
     <use style="fill:#4e4dfc;stroke:#4e4dfc;" x="220.839101" xlink:href="#m09dada0c25" y="156.335847"/>
     <use style="fill:#4e4dfc;stroke:#4e4dfc;" x="224.938275" xlink:href="#m09dada0c25" y="252.560033"/>
     <use style="fill:#4e4dfc;stroke:#4e4dfc;" x="229.037448" xlink:href="#m09dada0c25" y="206.177381"/>
     <use style="fill:#4e4dfc;stroke:#4e4dfc;" x="233.136622" xlink:href="#m09dada0c25" y="252.151693"/>
     <use style="fill:#4e4dfc;stroke:#4e4dfc;" x="237.235795" xlink:href="#m09dada0c25" y="60.52"/>
     <use style="fill:#4e4dfc;stroke:#4e4dfc;" x="241.334969" xlink:href="#m09dada0c25" y="218.57171"/>
     <use style="fill:#4e4dfc;stroke:#4e4dfc;" x="245.434143" xlink:href="#m09dada0c25" y="244.441268"/>
     <use style="fill:#4e4dfc;stroke:#4e4dfc;" x="249.533316" xlink:href="#m09dada0c25" y="193.110492"/>
     <use style="fill:#4e4dfc;stroke:#4e4dfc;" x="253.63249" xlink:href="#m09dada0c25" y="251.503153"/>
     <use style="fill:#4e4dfc;stroke:#4e4dfc;" x="257.731663" xlink:href="#m09dada0c25" y="207.042102"/>
     <use style="fill:#4e4dfc;stroke:#4e4dfc;" x="261.830837" xlink:href="#m09dada0c25" y="208.939683"/>
     <use style="fill:#4e4dfc;stroke:#4e4dfc;" x="265.93001" xlink:href="#m09dada0c25" y="243.000067"/>
     <use style="fill:#4e4dfc;stroke:#4e4dfc;" x="270.029184" xlink:href="#m09dada0c25" y="177.017081"/>
     <use style="fill:#4e4dfc;stroke:#4e4dfc;" x="274.128357" xlink:href="#m09dada0c25" y="173.366038"/>
     <use style="fill:#4e4dfc;stroke:#4e4dfc;" x="278.227531" xlink:href="#m09dada0c25" y="189.099149"/>
     <use style="fill:#4e4dfc;stroke:#4e4dfc;" x="282.326705" xlink:href="#m09dada0c25" y="222.366872"/>
     <use style="fill:#4e4dfc;stroke:#4e4dfc;" x="286.425878" xlink:href="#m09dada0c25" y="251.359033"/>
     <use style="fill:#4e4dfc;stroke:#4e4dfc;" x="290.525052" xlink:href="#m09dada0c25" y="205.1205"/>
     <use style="fill:#4e4dfc;stroke:#4e4dfc;" x="294.624225" xlink:href="#m09dada0c25" y="242.447606"/>
     <use style="fill:#4e4dfc;stroke:#4e4dfc;" x="298.723399" xlink:href="#m09dada0c25" y="178.578382"/>
     <use style="fill:#4e4dfc;stroke:#4e4dfc;" x="302.822572" xlink:href="#m09dada0c25" y="223.111493"/>
     <use style="fill:#4e4dfc;stroke:#4e4dfc;" x="306.921746" xlink:href="#m09dada0c25" y="253.640934"/>
     <use style="fill:#4e4dfc;stroke:#4e4dfc;" x="311.020919" xlink:href="#m09dada0c25" y="253.400734"/>
     <use style="fill:#4e4dfc;stroke:#4e4dfc;" x="315.120093" xlink:href="#m09dada0c25" y="180.451943"/>
     <use style="fill:#4e4dfc;stroke:#4e4dfc;" x="319.219267" xlink:href="#m09dada0c25" y="214.440267"/>
     <use style="fill:#4e4dfc;stroke:#4e4dfc;" x="323.31844" xlink:href="#m09dada0c25" y="251.022752"/>
     <use style="fill:#4e4dfc;stroke:#4e4dfc;" x="327.417614" xlink:href="#m09dada0c25" y="209.299983"/>
     <use style="fill:#4e4dfc;stroke:#4e4dfc;" x="331.516787" xlink:href="#m09dada0c25" y="223.207573"/>
     <use style="fill:#4e4dfc;stroke:#4e4dfc;" x="335.615961" xlink:href="#m09dada0c25" y="227.339016"/>
     <use style="fill:#4e4dfc;stroke:#4e4dfc;" x="339.715134" xlink:href="#m09dada0c25" y="258.516997"/>
     <use style="fill:#4e4dfc;stroke:#4e4dfc;" x="343.814308" xlink:href="#m09dada0c25" y="260.774879"/>
     <use style="fill:#4e4dfc;stroke:#4e4dfc;" x="347.913481" xlink:href="#m09dada0c25" y="175.74402"/>
     <use style="fill:#4e4dfc;stroke:#4e4dfc;" x="352.012655" xlink:href="#m09dada0c25" y="260.486639"/>
     <use style="fill:#4e4dfc;stroke:#4e4dfc;" x="356.111829" xlink:href="#m09dada0c25" y="216.962369"/>
     <use style="fill:#4e4dfc;stroke:#4e4dfc;" x="360.211002" xlink:href="#m09dada0c25" y="255.346355"/>
     <use style="fill:#4e4dfc;stroke:#4e4dfc;" x="364.310176" xlink:href="#m09dada0c25" y="251.407073"/>
     <use style="fill:#4e4dfc;stroke:#4e4dfc;" x="368.409349" xlink:href="#m09dada0c25" y="231.782719"/>
     <use style="fill:#4e4dfc;stroke:#4e4dfc;" x="372.508523" xlink:href="#m09dada0c25" y="255.106155"/>
     <use style="fill:#4e4dfc;stroke:#4e4dfc;" x="376.607696" xlink:href="#m09dada0c25" y="245.930509"/>
     <use style="fill:#4e4dfc;stroke:#4e4dfc;" x="380.70687" xlink:href="#m09dada0c25" y="226.882636"/>
     <use style="fill:#4e4dfc;stroke:#4e4dfc;" x="384.806043" xlink:href="#m09dada0c25" y="195.440434"/>
     <use style="fill:#4e4dfc;stroke:#4e4dfc;" x="388.905217" xlink:href="#m09dada0c25" y="254.577715"/>
     <use style="fill:#4e4dfc;stroke:#4e4dfc;" x="397.103564" xlink:href="#m09dada0c25" y="192.846272"/>
     <use style="fill:#4e4dfc;stroke:#4e4dfc;" x="401.202738" xlink:href="#m09dada0c25" y="254.481635"/>
     <use style="fill:#4e4dfc;stroke:#4e4dfc;" x="405.301911" xlink:href="#m09dada0c25" y="230.317498"/>
     <use style="fill:#4e4dfc;stroke:#4e4dfc;" x="409.401085" xlink:href="#m09dada0c25" y="248.740851"/>
     <use style="fill:#4e4dfc;stroke:#4e4dfc;" x="413.500258" xlink:href="#m09dada0c25" y="245.161868"/>
     <use style="fill:#4e4dfc;stroke:#4e4dfc;" x="417.599432" xlink:href="#m09dada0c25" y="234.040601"/>
     <use style="fill:#4e4dfc;stroke:#4e4dfc;" x="421.698605" xlink:href="#m09dada0c25" y="240.838265"/>
     <use style="fill:#4e4dfc;stroke:#4e4dfc;" x="425.797779" xlink:href="#m09dada0c25" y="236.202402"/>
     <use style="fill:#4e4dfc;stroke:#4e4dfc;" x="429.896952" xlink:href="#m09dada0c25" y="243.528507"/>
     <use style="fill:#4e4dfc;stroke:#4e4dfc;" x="433.996126" xlink:href="#m09dada0c25" y="240.069625"/>
     <use style="fill:#4e4dfc;stroke:#4e4dfc;" x="438.0953" xlink:href="#m09dada0c25" y="256.643436"/>
     <use style="fill:#4e4dfc;stroke:#4e4dfc;" x="442.194473" xlink:href="#m09dada0c25" y="203.679299"/>
     <use style="fill:#4e4dfc;stroke:#4e4dfc;" x="446.293647" xlink:href="#m09dada0c25" y="161.52417"/>
     <use style="fill:#4e4dfc;stroke:#4e4dfc;" x="450.39282" xlink:href="#m09dada0c25" y="242.063286"/>
     <use style="fill:#4e4dfc;stroke:#4e4dfc;" x="454.491994" xlink:href="#m09dada0c25" y="262.12"/>
     <use style="fill:#4e4dfc;stroke:#4e4dfc;" x="458.591167" xlink:href="#m09dada0c25" y="254.097314"/>
     <use style="fill:#4e4dfc;stroke:#4e4dfc;" x="462.690341" xlink:href="#m09dada0c25" y="109.352694"/>
    </g>
   </g>
   <g id="line2d_12">
    <path clip-path="url(#pe6894d69b7)" d="M 56.872159 182.974045 
L 60.971333 251.575213 
L 65.070506 193.254612 
L 69.16968 158.833928 
L 73.268853 250.854612 
L 77.368027 250.614412 
L 81.4672 249.005071 
L 85.566374 247.53985 
L 89.665548 246.242769 
L 93.764721 231.902819 
L 97.863895 247.56387 
L 101.963068 247.68397 
L 106.062242 192.678132 
L 110.161415 199.619917 
L 114.260589 251.455113 
L 118.359762 246.651109 
L 122.458936 245.690309 
L 126.55811 219.940851 
L 134.756457 248.933011 
L 138.85563 180.812244 
L 142.954804 247.78005 
L 147.053977 251.166872 
L 151.153151 233.58422 
L 155.252324 251.214912 
L 159.351498 258.901318 
L 163.450671 255.106155 
L 167.549845 244.008907 
L 171.649019 243.240267 
L 175.748192 192.846272 
L 179.847366 195.056113 
L 183.946539 242.591726 
L 188.045713 230.990058 
L 192.144886 249.893812 
L 196.24406 190.948691 
L 200.343233 249.317331 
L 204.442407 203.99156 
L 208.541581 245.594229 
L 212.640754 168.225755 
L 216.739928 179.298982 
L 220.839101 254.241435 
L 224.938275 247.15553 
L 229.037448 167.168874 
L 233.136622 249.293311 
L 237.235795 225.705655 
L 241.334969 248.33251 
L 245.434143 230.653778 
L 249.533316 246.122669 
L 253.63249 242.663786 
L 257.731663 124.941685 
L 261.830837 219.07613 
L 265.93001 199.451776 
L 270.029184 182.805905 
L 274.128357 152.852944 
L 278.227531 230.437598 
L 282.326705 176.34452 
L 286.425878 178.242102 
L 290.525052 216.722168 
L 294.624225 237.067123 
L 298.723399 206.345521 
L 302.822572 250.013912 
L 306.921746 213.815746 
L 311.020919 199.091476 
L 315.120093 177.473461 
L 319.219267 233.00774 
L 323.31844 165.367373 
L 327.417614 252.752193 
L 331.516787 239.829425 
L 335.615961 175.88814 
L 339.715134 251.935513 
L 343.814308 244.321168 
L 347.913481 202.093978 
L 352.012655 247.78005 
L 356.111829 170.051276 
L 360.211002 250.782552 
L 364.310176 195.680634 
L 368.409349 217.154529 
L 372.508523 256.355196 
L 376.607696 157.993228 
L 380.70687 136.975713 
L 384.806043 178.338182 
L 388.905217 231.854779 
L 393.00439 252.031593 
L 397.103564 168.105655 
L 401.202738 246.987389 
L 405.301911 249.749691 
L 409.401085 245.354028 
L 413.500258 235.073461 
L 417.599432 183.910826 
L 421.698605 184.295146 
L 425.797779 250.518332 
L 429.896952 251.479133 
L 433.996126 115.069458 
L 438.0953 207.666622 
L 442.194473 185.448107 
L 446.293647 252.343853 
L 450.39282 220.036931 
L 454.491994 251.407073 
L 458.591167 203.89548 
L 462.690341 186.240767 
" style="fill:none;stroke:#ff4d27;stroke-linecap:square;stroke-width:1.5;"/>
    <defs>
     <path d="M 0 1.5 
C 0.397805 1.5 0.77937 1.341951 1.06066 1.06066 
C 1.341951 0.77937 1.5 0.397805 1.5 0 
C 1.5 -0.397805 1.341951 -0.77937 1.06066 -1.06066 
C 0.77937 -1.341951 0.397805 -1.5 0 -1.5 
C -0.397805 -1.5 -0.77937 -1.341951 -1.06066 -1.06066 
C -1.341951 -0.77937 -1.5 -0.397805 -1.5 0 
C -1.5 0.397805 -1.341951 0.77937 -1.06066 1.06066 
C -0.77937 1.341951 -0.397805 1.5 0 1.5 
z
" id="mc4bac55068" style="stroke:#ff4d27;"/>
    </defs>
    <g clip-path="url(#pe6894d69b7)">
     <use style="fill:#ff4d27;stroke:#ff4d27;" x="56.872159" xlink:href="#mc4bac55068" y="182.974045"/>
     <use style="fill:#ff4d27;stroke:#ff4d27;" x="60.971333" xlink:href="#mc4bac55068" y="251.575213"/>
     <use style="fill:#ff4d27;stroke:#ff4d27;" x="65.070506" xlink:href="#mc4bac55068" y="193.254612"/>
     <use style="fill:#ff4d27;stroke:#ff4d27;" x="69.16968" xlink:href="#mc4bac55068" y="158.833928"/>
     <use style="fill:#ff4d27;stroke:#ff4d27;" x="73.268853" xlink:href="#mc4bac55068" y="250.854612"/>
     <use style="fill:#ff4d27;stroke:#ff4d27;" x="77.368027" xlink:href="#mc4bac55068" y="250.614412"/>
     <use style="fill:#ff4d27;stroke:#ff4d27;" x="81.4672" xlink:href="#mc4bac55068" y="249.005071"/>
     <use style="fill:#ff4d27;stroke:#ff4d27;" x="85.566374" xlink:href="#mc4bac55068" y="247.53985"/>
     <use style="fill:#ff4d27;stroke:#ff4d27;" x="89.665548" xlink:href="#mc4bac55068" y="246.242769"/>
     <use style="fill:#ff4d27;stroke:#ff4d27;" x="93.764721" xlink:href="#mc4bac55068" y="231.902819"/>
     <use style="fill:#ff4d27;stroke:#ff4d27;" x="97.863895" xlink:href="#mc4bac55068" y="247.56387"/>
     <use style="fill:#ff4d27;stroke:#ff4d27;" x="101.963068" xlink:href="#mc4bac55068" y="247.68397"/>
     <use style="fill:#ff4d27;stroke:#ff4d27;" x="106.062242" xlink:href="#mc4bac55068" y="192.678132"/>
     <use style="fill:#ff4d27;stroke:#ff4d27;" x="110.161415" xlink:href="#mc4bac55068" y="199.619917"/>
     <use style="fill:#ff4d27;stroke:#ff4d27;" x="114.260589" xlink:href="#mc4bac55068" y="251.455113"/>
     <use style="fill:#ff4d27;stroke:#ff4d27;" x="118.359762" xlink:href="#mc4bac55068" y="246.651109"/>
     <use style="fill:#ff4d27;stroke:#ff4d27;" x="122.458936" xlink:href="#mc4bac55068" y="245.690309"/>
     <use style="fill:#ff4d27;stroke:#ff4d27;" x="126.55811" xlink:href="#mc4bac55068" y="219.940851"/>
     <use style="fill:#ff4d27;stroke:#ff4d27;" x="134.756457" xlink:href="#mc4bac55068" y="248.933011"/>
     <use style="fill:#ff4d27;stroke:#ff4d27;" x="138.85563" xlink:href="#mc4bac55068" y="180.812244"/>
     <use style="fill:#ff4d27;stroke:#ff4d27;" x="142.954804" xlink:href="#mc4bac55068" y="247.78005"/>
     <use style="fill:#ff4d27;stroke:#ff4d27;" x="147.053977" xlink:href="#mc4bac55068" y="251.166872"/>
     <use style="fill:#ff4d27;stroke:#ff4d27;" x="151.153151" xlink:href="#mc4bac55068" y="233.58422"/>
     <use style="fill:#ff4d27;stroke:#ff4d27;" x="155.252324" xlink:href="#mc4bac55068" y="251.214912"/>
     <use style="fill:#ff4d27;stroke:#ff4d27;" x="159.351498" xlink:href="#mc4bac55068" y="258.901318"/>
     <use style="fill:#ff4d27;stroke:#ff4d27;" x="163.450671" xlink:href="#mc4bac55068" y="255.106155"/>
     <use style="fill:#ff4d27;stroke:#ff4d27;" x="167.549845" xlink:href="#mc4bac55068" y="244.008907"/>
     <use style="fill:#ff4d27;stroke:#ff4d27;" x="171.649019" xlink:href="#mc4bac55068" y="243.240267"/>
     <use style="fill:#ff4d27;stroke:#ff4d27;" x="175.748192" xlink:href="#mc4bac55068" y="192.846272"/>
     <use style="fill:#ff4d27;stroke:#ff4d27;" x="179.847366" xlink:href="#mc4bac55068" y="195.056113"/>
     <use style="fill:#ff4d27;stroke:#ff4d27;" x="183.946539" xlink:href="#mc4bac55068" y="242.591726"/>
     <use style="fill:#ff4d27;stroke:#ff4d27;" x="188.045713" xlink:href="#mc4bac55068" y="230.990058"/>
     <use style="fill:#ff4d27;stroke:#ff4d27;" x="192.144886" xlink:href="#mc4bac55068" y="249.893812"/>
     <use style="fill:#ff4d27;stroke:#ff4d27;" x="196.24406" xlink:href="#mc4bac55068" y="190.948691"/>
     <use style="fill:#ff4d27;stroke:#ff4d27;" x="200.343233" xlink:href="#mc4bac55068" y="249.317331"/>
     <use style="fill:#ff4d27;stroke:#ff4d27;" x="204.442407" xlink:href="#mc4bac55068" y="203.99156"/>
     <use style="fill:#ff4d27;stroke:#ff4d27;" x="208.541581" xlink:href="#mc4bac55068" y="245.594229"/>
     <use style="fill:#ff4d27;stroke:#ff4d27;" x="212.640754" xlink:href="#mc4bac55068" y="168.225755"/>
     <use style="fill:#ff4d27;stroke:#ff4d27;" x="216.739928" xlink:href="#mc4bac55068" y="179.298982"/>
     <use style="fill:#ff4d27;stroke:#ff4d27;" x="220.839101" xlink:href="#mc4bac55068" y="254.241435"/>
     <use style="fill:#ff4d27;stroke:#ff4d27;" x="224.938275" xlink:href="#mc4bac55068" y="247.15553"/>
     <use style="fill:#ff4d27;stroke:#ff4d27;" x="229.037448" xlink:href="#mc4bac55068" y="167.168874"/>
     <use style="fill:#ff4d27;stroke:#ff4d27;" x="233.136622" xlink:href="#mc4bac55068" y="249.293311"/>
     <use style="fill:#ff4d27;stroke:#ff4d27;" x="237.235795" xlink:href="#mc4bac55068" y="225.705655"/>
     <use style="fill:#ff4d27;stroke:#ff4d27;" x="241.334969" xlink:href="#mc4bac55068" y="248.33251"/>
     <use style="fill:#ff4d27;stroke:#ff4d27;" x="245.434143" xlink:href="#mc4bac55068" y="230.653778"/>
     <use style="fill:#ff4d27;stroke:#ff4d27;" x="249.533316" xlink:href="#mc4bac55068" y="246.122669"/>
     <use style="fill:#ff4d27;stroke:#ff4d27;" x="253.63249" xlink:href="#mc4bac55068" y="242.663786"/>
     <use style="fill:#ff4d27;stroke:#ff4d27;" x="257.731663" xlink:href="#mc4bac55068" y="124.941685"/>
     <use style="fill:#ff4d27;stroke:#ff4d27;" x="261.830837" xlink:href="#mc4bac55068" y="219.07613"/>
     <use style="fill:#ff4d27;stroke:#ff4d27;" x="265.93001" xlink:href="#mc4bac55068" y="199.451776"/>
     <use style="fill:#ff4d27;stroke:#ff4d27;" x="270.029184" xlink:href="#mc4bac55068" y="182.805905"/>
     <use style="fill:#ff4d27;stroke:#ff4d27;" x="274.128357" xlink:href="#mc4bac55068" y="152.852944"/>
     <use style="fill:#ff4d27;stroke:#ff4d27;" x="278.227531" xlink:href="#mc4bac55068" y="230.437598"/>
     <use style="fill:#ff4d27;stroke:#ff4d27;" x="282.326705" xlink:href="#mc4bac55068" y="176.34452"/>
     <use style="fill:#ff4d27;stroke:#ff4d27;" x="286.425878" xlink:href="#mc4bac55068" y="178.242102"/>
     <use style="fill:#ff4d27;stroke:#ff4d27;" x="290.525052" xlink:href="#mc4bac55068" y="216.722168"/>
     <use style="fill:#ff4d27;stroke:#ff4d27;" x="294.624225" xlink:href="#mc4bac55068" y="237.067123"/>
     <use style="fill:#ff4d27;stroke:#ff4d27;" x="298.723399" xlink:href="#mc4bac55068" y="206.345521"/>
     <use style="fill:#ff4d27;stroke:#ff4d27;" x="302.822572" xlink:href="#mc4bac55068" y="250.013912"/>
     <use style="fill:#ff4d27;stroke:#ff4d27;" x="306.921746" xlink:href="#mc4bac55068" y="213.815746"/>
     <use style="fill:#ff4d27;stroke:#ff4d27;" x="311.020919" xlink:href="#mc4bac55068" y="199.091476"/>
     <use style="fill:#ff4d27;stroke:#ff4d27;" x="315.120093" xlink:href="#mc4bac55068" y="177.473461"/>
     <use style="fill:#ff4d27;stroke:#ff4d27;" x="319.219267" xlink:href="#mc4bac55068" y="233.00774"/>
     <use style="fill:#ff4d27;stroke:#ff4d27;" x="323.31844" xlink:href="#mc4bac55068" y="165.367373"/>
     <use style="fill:#ff4d27;stroke:#ff4d27;" x="327.417614" xlink:href="#mc4bac55068" y="252.752193"/>
     <use style="fill:#ff4d27;stroke:#ff4d27;" x="331.516787" xlink:href="#mc4bac55068" y="239.829425"/>
     <use style="fill:#ff4d27;stroke:#ff4d27;" x="335.615961" xlink:href="#mc4bac55068" y="175.88814"/>
     <use style="fill:#ff4d27;stroke:#ff4d27;" x="339.715134" xlink:href="#mc4bac55068" y="251.935513"/>
     <use style="fill:#ff4d27;stroke:#ff4d27;" x="343.814308" xlink:href="#mc4bac55068" y="244.321168"/>
     <use style="fill:#ff4d27;stroke:#ff4d27;" x="347.913481" xlink:href="#mc4bac55068" y="202.093978"/>
     <use style="fill:#ff4d27;stroke:#ff4d27;" x="352.012655" xlink:href="#mc4bac55068" y="247.78005"/>
     <use style="fill:#ff4d27;stroke:#ff4d27;" x="356.111829" xlink:href="#mc4bac55068" y="170.051276"/>
     <use style="fill:#ff4d27;stroke:#ff4d27;" x="360.211002" xlink:href="#mc4bac55068" y="250.782552"/>
     <use style="fill:#ff4d27;stroke:#ff4d27;" x="364.310176" xlink:href="#mc4bac55068" y="195.680634"/>
     <use style="fill:#ff4d27;stroke:#ff4d27;" x="368.409349" xlink:href="#mc4bac55068" y="217.154529"/>
     <use style="fill:#ff4d27;stroke:#ff4d27;" x="372.508523" xlink:href="#mc4bac55068" y="256.355196"/>
     <use style="fill:#ff4d27;stroke:#ff4d27;" x="376.607696" xlink:href="#mc4bac55068" y="157.993228"/>
     <use style="fill:#ff4d27;stroke:#ff4d27;" x="380.70687" xlink:href="#mc4bac55068" y="136.975713"/>
     <use style="fill:#ff4d27;stroke:#ff4d27;" x="384.806043" xlink:href="#mc4bac55068" y="178.338182"/>
     <use style="fill:#ff4d27;stroke:#ff4d27;" x="388.905217" xlink:href="#mc4bac55068" y="231.854779"/>
     <use style="fill:#ff4d27;stroke:#ff4d27;" x="393.00439" xlink:href="#mc4bac55068" y="252.031593"/>
     <use style="fill:#ff4d27;stroke:#ff4d27;" x="397.103564" xlink:href="#mc4bac55068" y="168.105655"/>
     <use style="fill:#ff4d27;stroke:#ff4d27;" x="401.202738" xlink:href="#mc4bac55068" y="246.987389"/>
     <use style="fill:#ff4d27;stroke:#ff4d27;" x="405.301911" xlink:href="#mc4bac55068" y="249.749691"/>
     <use style="fill:#ff4d27;stroke:#ff4d27;" x="409.401085" xlink:href="#mc4bac55068" y="245.354028"/>
     <use style="fill:#ff4d27;stroke:#ff4d27;" x="413.500258" xlink:href="#mc4bac55068" y="235.073461"/>
     <use style="fill:#ff4d27;stroke:#ff4d27;" x="417.599432" xlink:href="#mc4bac55068" y="183.910826"/>
     <use style="fill:#ff4d27;stroke:#ff4d27;" x="421.698605" xlink:href="#mc4bac55068" y="184.295146"/>
     <use style="fill:#ff4d27;stroke:#ff4d27;" x="425.797779" xlink:href="#mc4bac55068" y="250.518332"/>
     <use style="fill:#ff4d27;stroke:#ff4d27;" x="429.896952" xlink:href="#mc4bac55068" y="251.479133"/>
     <use style="fill:#ff4d27;stroke:#ff4d27;" x="433.996126" xlink:href="#mc4bac55068" y="115.069458"/>
     <use style="fill:#ff4d27;stroke:#ff4d27;" x="438.0953" xlink:href="#mc4bac55068" y="207.666622"/>
     <use style="fill:#ff4d27;stroke:#ff4d27;" x="442.194473" xlink:href="#mc4bac55068" y="185.448107"/>
     <use style="fill:#ff4d27;stroke:#ff4d27;" x="446.293647" xlink:href="#mc4bac55068" y="252.343853"/>
     <use style="fill:#ff4d27;stroke:#ff4d27;" x="450.39282" xlink:href="#mc4bac55068" y="220.036931"/>
     <use style="fill:#ff4d27;stroke:#ff4d27;" x="454.491994" xlink:href="#mc4bac55068" y="251.407073"/>
     <use style="fill:#ff4d27;stroke:#ff4d27;" x="458.591167" xlink:href="#mc4bac55068" y="203.89548"/>
     <use style="fill:#ff4d27;stroke:#ff4d27;" x="462.690341" xlink:href="#mc4bac55068" y="186.240767"/>
    </g>
   </g>
   <g id="patch_3">
    <path d="M 36.58125 272.2 
L 36.58125 50.44 
" style="fill:none;stroke:#000000;stroke-linecap:square;stroke-linejoin:miter;stroke-width:0.8;"/>
   </g>
   <g id="patch_4">
    <path d="M 482.98125 272.2 
L 482.98125 50.44 
" style="fill:none;stroke:#000000;stroke-linecap:square;stroke-linejoin:miter;stroke-width:0.8;"/>
   </g>
   <g id="patch_5">
    <path d="M 36.58125 272.2 
L 482.98125 272.2 
" style="fill:none;stroke:#000000;stroke-linecap:square;stroke-linejoin:miter;stroke-width:0.8;"/>
   </g>
   <g id="patch_6">
    <path d="M 36.58125 50.44 
L 482.98125 50.44 
" style="fill:none;stroke:#000000;stroke-linecap:square;stroke-linejoin:miter;stroke-width:0.8;"/>
   </g>
   <g id="legend_1">
    <g id="patch_7">
     <path d="M 118.475781 32.9125 
L 401.086719 32.9125 
Q 403.086719 32.9125 403.086719 30.9125 
L 403.086719 2 
Q 403.086719 0 401.086719 0 
L 118.475781 0 
Q 116.475781 0 116.475781 2 
L 116.475781 30.9125 
Q 116.475781 32.9125 118.475781 32.9125 
z
" style="fill:#ffffff;opacity:0.8;stroke:#cccccc;stroke-linejoin:miter;"/>
    </g>
    <g id="line2d_13">
     <path d="M 120.475781 8.098438 
L 140.475781 8.098438 
" style="fill:none;stroke:#4e4dfc;stroke-linecap:square;stroke-width:1.5;"/>
    </g>
    <g id="line2d_14">
     <g>
      <use style="fill:#4e4dfc;stroke:#4e4dfc;" x="130.475781" xlink:href="#m09dada0c25" y="8.098438"/>
     </g>
    </g>
    <g id="text_13">
     <!-- a__20MB__nosurvive__0.yaml\PauseDurationMSec -->
     <defs>
      <path d="M 50.984375 -16.609375 
L 50.984375 -23.578125 
L -0.984375 -23.578125 
L -0.984375 -16.609375 
z
" id="DejaVuSans-95"/>
      <path d="M 19.671875 34.8125 
L 19.671875 8.109375 
L 35.5 8.109375 
Q 43.453125 8.109375 47.28125 11.40625 
Q 51.125 14.703125 51.125 21.484375 
Q 51.125 28.328125 47.28125 31.5625 
Q 43.453125 34.8125 35.5 34.8125 
z
M 19.671875 64.796875 
L 19.671875 42.828125 
L 34.28125 42.828125 
Q 41.5 42.828125 45.03125 45.53125 
Q 48.578125 48.25 48.578125 53.8125 
Q 48.578125 59.328125 45.03125 62.0625 
Q 41.5 64.796875 34.28125 64.796875 
z
M 9.8125 72.90625 
L 35.015625 72.90625 
Q 46.296875 72.90625 52.390625 68.21875 
Q 58.5 63.53125 58.5 54.890625 
Q 58.5 48.1875 55.375 44.234375 
Q 52.25 40.28125 46.1875 39.3125 
Q 53.46875 37.75 57.5 32.78125 
Q 61.53125 27.828125 61.53125 20.40625 
Q 61.53125 10.640625 54.890625 5.3125 
Q 48.25 0 35.984375 0 
L 9.8125 0 
z
" id="DejaVuSans-66"/>
      <path d="M 2.984375 54.6875 
L 12.5 54.6875 
L 29.59375 8.796875 
L 46.6875 54.6875 
L 56.203125 54.6875 
L 35.6875 0 
L 23.484375 0 
z
" id="DejaVuSans-118"/>
      <path d="M 32.171875 -5.078125 
Q 28.375 -14.84375 24.75 -17.8125 
Q 21.140625 -20.796875 15.09375 -20.796875 
L 7.90625 -20.796875 
L 7.90625 -13.28125 
L 13.1875 -13.28125 
Q 16.890625 -13.28125 18.9375 -11.515625 
Q 21 -9.765625 23.484375 -3.21875 
L 25.09375 0.875 
L 2.984375 54.6875 
L 12.5 54.6875 
L 29.59375 11.921875 
L 46.6875 54.6875 
L 56.203125 54.6875 
z
" id="DejaVuSans-121"/>
      <path d="M 52 44.1875 
Q 55.375 50.25 60.0625 53.125 
Q 64.75 56 71.09375 56 
Q 79.640625 56 84.28125 50.015625 
Q 88.921875 44.046875 88.921875 33.015625 
L 88.921875 0 
L 79.890625 0 
L 79.890625 32.71875 
Q 79.890625 40.578125 77.09375 44.375 
Q 74.3125 48.1875 68.609375 48.1875 
Q 61.625 48.1875 57.5625 43.546875 
Q 53.515625 38.921875 53.515625 30.90625 
L 53.515625 0 
L 44.484375 0 
L 44.484375 32.71875 
Q 44.484375 40.625 41.703125 44.40625 
Q 38.921875 48.1875 33.109375 48.1875 
Q 26.21875 48.1875 22.15625 43.53125 
Q 18.109375 38.875 18.109375 30.90625 
L 18.109375 0 
L 9.078125 0 
L 9.078125 54.6875 
L 18.109375 54.6875 
L 18.109375 46.1875 
Q 21.1875 51.21875 25.484375 53.609375 
Q 29.78125 56 35.6875 56 
Q 41.65625 56 45.828125 52.96875 
Q 50 49.953125 52 44.1875 
z
" id="DejaVuSans-109"/>
      <path d="M 9.421875 75.984375 
L 18.40625 75.984375 
L 18.40625 0 
L 9.421875 0 
z
" id="DejaVuSans-108"/>
      <path d="M 8.296875 72.90625 
L 33.6875 -9.28125 
L 25.390625 -9.28125 
L 0 72.90625 
z
" id="DejaVuSans-92"/>
     </defs>
     <g transform="translate(148.475781 11.598438)scale(0.1 -0.1)">
      <use xlink:href="#DejaVuSans-97"/>
      <use x="61.279297" xlink:href="#DejaVuSans-95"/>
      <use x="111.279297" xlink:href="#DejaVuSans-95"/>
      <use x="161.279297" xlink:href="#DejaVuSans-50"/>
      <use x="224.902344" xlink:href="#DejaVuSans-48"/>
      <use x="288.525391" xlink:href="#DejaVuSans-77"/>
      <use x="374.804688" xlink:href="#DejaVuSans-66"/>
      <use x="443.408203" xlink:href="#DejaVuSans-95"/>
      <use x="493.408203" xlink:href="#DejaVuSans-95"/>
      <use x="543.408203" xlink:href="#DejaVuSans-110"/>
      <use x="606.787109" xlink:href="#DejaVuSans-111"/>
      <use x="667.96875" xlink:href="#DejaVuSans-115"/>
      <use x="720.068359" xlink:href="#DejaVuSans-117"/>
      <use x="783.447266" xlink:href="#DejaVuSans-114"/>
      <use x="824.560547" xlink:href="#DejaVuSans-118"/>
      <use x="883.740234" xlink:href="#DejaVuSans-105"/>
      <use x="911.523438" xlink:href="#DejaVuSans-118"/>
      <use x="970.703125" xlink:href="#DejaVuSans-101"/>
      <use x="1032.226562" xlink:href="#DejaVuSans-95"/>
      <use x="1082.226562" xlink:href="#DejaVuSans-95"/>
      <use x="1132.226562" xlink:href="#DejaVuSans-48"/>
      <use x="1195.849609" xlink:href="#DejaVuSans-46"/>
      <use x="1227.636719" xlink:href="#DejaVuSans-121"/>
      <use x="1286.816406" xlink:href="#DejaVuSans-97"/>
      <use x="1348.095703" xlink:href="#DejaVuSans-109"/>
      <use x="1445.507812" xlink:href="#DejaVuSans-108"/>
      <use x="1473.291016" xlink:href="#DejaVuSans-92"/>
      <use x="1506.982422" xlink:href="#DejaVuSans-80"/>
      <use x="1567.222656" xlink:href="#DejaVuSans-97"/>
      <use x="1628.501953" xlink:href="#DejaVuSans-117"/>
      <use x="1691.880859" xlink:href="#DejaVuSans-115"/>
      <use x="1743.980469" xlink:href="#DejaVuSans-101"/>
      <use x="1805.503906" xlink:href="#DejaVuSans-68"/>
      <use x="1882.505859" xlink:href="#DejaVuSans-117"/>
      <use x="1945.884766" xlink:href="#DejaVuSans-114"/>
      <use x="1986.998047" xlink:href="#DejaVuSans-97"/>
      <use x="2048.277344" xlink:href="#DejaVuSans-116"/>
      <use x="2087.486328" xlink:href="#DejaVuSans-105"/>
      <use x="2115.269531" xlink:href="#DejaVuSans-111"/>
      <use x="2176.451172" xlink:href="#DejaVuSans-110"/>
      <use x="2239.830078" xlink:href="#DejaVuSans-77"/>
      <use x="2326.109375" xlink:href="#DejaVuSans-83"/>
      <use x="2389.585938" xlink:href="#DejaVuSans-101"/>
      <use x="2451.109375" xlink:href="#DejaVuSans-99"/>
     </g>
    </g>
    <g id="line2d_15">
     <path d="M 120.475781 23.054688 
L 140.475781 23.054688 
" style="fill:none;stroke:#ff4d27;stroke-linecap:square;stroke-width:1.5;"/>
    </g>
    <g id="line2d_16">
     <g>
      <use style="fill:#ff4d27;stroke:#ff4d27;" x="130.475781" xlink:href="#mc4bac55068" y="23.054688"/>
     </g>
    </g>
    <g id="text_14">
     <!-- a__30MB__nosurvive__0.yaml\PauseDurationMSec -->
     <defs>
      <path d="M 40.578125 39.3125 
Q 47.65625 37.796875 51.625 33 
Q 55.609375 28.21875 55.609375 21.1875 
Q 55.609375 10.40625 48.1875 4.484375 
Q 40.765625 -1.421875 27.09375 -1.421875 
Q 22.515625 -1.421875 17.65625 -0.515625 
Q 12.796875 0.390625 7.625 2.203125 
L 7.625 11.71875 
Q 11.71875 9.328125 16.59375 8.109375 
Q 21.484375 6.890625 26.8125 6.890625 
Q 36.078125 6.890625 40.9375 10.546875 
Q 45.796875 14.203125 45.796875 21.1875 
Q 45.796875 27.640625 41.28125 31.265625 
Q 36.765625 34.90625 28.71875 34.90625 
L 20.21875 34.90625 
L 20.21875 43.015625 
L 29.109375 43.015625 
Q 36.375 43.015625 40.234375 45.921875 
Q 44.09375 48.828125 44.09375 54.296875 
Q 44.09375 59.90625 40.109375 62.90625 
Q 36.140625 65.921875 28.71875 65.921875 
Q 24.65625 65.921875 20.015625 65.03125 
Q 15.375 64.15625 9.8125 62.3125 
L 9.8125 71.09375 
Q 15.4375 72.65625 20.34375 73.4375 
Q 25.25 74.21875 29.59375 74.21875 
Q 40.828125 74.21875 47.359375 69.109375 
Q 53.90625 64.015625 53.90625 55.328125 
Q 53.90625 49.265625 50.4375 45.09375 
Q 46.96875 40.921875 40.578125 39.3125 
z
" id="DejaVuSans-51"/>
     </defs>
     <g transform="translate(148.475781 26.554688)scale(0.1 -0.1)">
      <use xlink:href="#DejaVuSans-97"/>
      <use x="61.279297" xlink:href="#DejaVuSans-95"/>
      <use x="111.279297" xlink:href="#DejaVuSans-95"/>
      <use x="161.279297" xlink:href="#DejaVuSans-51"/>
      <use x="224.902344" xlink:href="#DejaVuSans-48"/>
      <use x="288.525391" xlink:href="#DejaVuSans-77"/>
      <use x="374.804688" xlink:href="#DejaVuSans-66"/>
      <use x="443.408203" xlink:href="#DejaVuSans-95"/>
      <use x="493.408203" xlink:href="#DejaVuSans-95"/>
      <use x="543.408203" xlink:href="#DejaVuSans-110"/>
      <use x="606.787109" xlink:href="#DejaVuSans-111"/>
      <use x="667.96875" xlink:href="#DejaVuSans-115"/>
      <use x="720.068359" xlink:href="#DejaVuSans-117"/>
      <use x="783.447266" xlink:href="#DejaVuSans-114"/>
      <use x="824.560547" xlink:href="#DejaVuSans-118"/>
      <use x="883.740234" xlink:href="#DejaVuSans-105"/>
      <use x="911.523438" xlink:href="#DejaVuSans-118"/>
      <use x="970.703125" xlink:href="#DejaVuSans-101"/>
      <use x="1032.226562" xlink:href="#DejaVuSans-95"/>
      <use x="1082.226562" xlink:href="#DejaVuSans-95"/>
      <use x="1132.226562" xlink:href="#DejaVuSans-48"/>
      <use x="1195.849609" xlink:href="#DejaVuSans-46"/>
      <use x="1227.636719" xlink:href="#DejaVuSans-121"/>
      <use x="1286.816406" xlink:href="#DejaVuSans-97"/>
      <use x="1348.095703" xlink:href="#DejaVuSans-109"/>
      <use x="1445.507812" xlink:href="#DejaVuSans-108"/>
      <use x="1473.291016" xlink:href="#DejaVuSans-92"/>
      <use x="1506.982422" xlink:href="#DejaVuSans-80"/>
      <use x="1567.222656" xlink:href="#DejaVuSans-97"/>
      <use x="1628.501953" xlink:href="#DejaVuSans-117"/>
      <use x="1691.880859" xlink:href="#DejaVuSans-115"/>
      <use x="1743.980469" xlink:href="#DejaVuSans-101"/>
      <use x="1805.503906" xlink:href="#DejaVuSans-68"/>
      <use x="1882.505859" xlink:href="#DejaVuSans-117"/>
      <use x="1945.884766" xlink:href="#DejaVuSans-114"/>
      <use x="1986.998047" xlink:href="#DejaVuSans-97"/>
      <use x="2048.277344" xlink:href="#DejaVuSans-116"/>
      <use x="2087.486328" xlink:href="#DejaVuSans-105"/>
      <use x="2115.269531" xlink:href="#DejaVuSans-111"/>
      <use x="2176.451172" xlink:href="#DejaVuSans-110"/>
      <use x="2239.830078" xlink:href="#DejaVuSans-77"/>
      <use x="2326.109375" xlink:href="#DejaVuSans-83"/>
      <use x="2389.585938" xlink:href="#DejaVuSans-101"/>
      <use x="2451.109375" xlink:href="#DejaVuSans-99"/>
     </g>
    </g>
   </g>
  </g>
 </g>
 <defs>
  <clipPath id="pe6894d69b7">
   <rect height="221.76" width="446.4" x="36.58125" y="50.44"/>
  </clipPath>
 </defs>
</svg>
